<svg width="815" height="327" viewBox="0 0 815 327" fill="none" xmlns="http://www.w3.org/2000/svg">
<path d="M153.32 326.904H152.588C151.774 326.904 150.879 326.66 149.902 326.172C149.577 325.684 149.089 325.114 148.438 324.463C147.786 323.812 147.217 322.917 146.729 321.777C146.729 319.661 146.647 318.278 146.484 317.627C145.833 314.535 145.508 311.279 145.508 307.861L145.752 301.025C145.426 298.91 145.264 296.794 145.264 294.678C145.264 293.213 145.426 291.829 145.752 290.527V277.588C146.566 273.031 147.054 268.311 147.217 263.428C147.38 258.545 147.868 253.825 148.682 249.268V242.92L149.658 237.305L149.902 223.389L150.635 222.656C150.635 210.612 150.798 204.102 151.123 203.125C151.611 201.986 151.855 200.846 151.855 199.707C151.855 198.73 151.611 197.754 151.123 196.777C150.798 195.801 150.635 194.336 150.635 192.383V184.814C150.309 184.652 150.146 184.57 150.146 184.57L149.902 184.326C149.74 184.163 149.658 181.071 149.658 175.049C149.007 173.096 148.682 170.573 148.682 167.48H148.438C148.112 167.155 147.624 166.992 146.973 166.992C146.484 167.48 145.752 167.725 144.775 167.725C143.799 167.725 142.985 167.969 142.334 168.457C141.846 168.783 141.439 169.027 141.113 169.189H138.428C138.265 169.189 138.102 169.271 137.939 169.434C137.939 169.596 137.858 169.759 137.695 169.922C137.533 170.085 136.637 170.166 135.01 170.166L134.766 170.41C134.603 170.573 134.44 170.736 134.277 170.898C134.277 171.061 134.196 171.143 134.033 171.143C132.08 171.143 131.022 171.224 130.859 171.387C130.859 171.549 130.697 171.794 130.371 172.119C128.418 172.119 126.383 172.607 124.268 173.584C122.152 174.561 120.199 175.049 118.408 175.049C114.014 176.676 109.701 178.548 105.469 180.664L103.76 180.908L99.1211 182.861C96.1914 184.001 93.4245 185.221 90.8203 186.523C90.1693 186.686 89.5182 186.849 88.8672 187.012C88.3789 187.012 87.7279 187.256 86.9141 187.744C83.4961 189.372 81.1361 190.186 79.834 190.186C78.2064 190.186 76.9857 189.779 76.1719 188.965C75.5208 187.988 75.1953 187.419 75.1953 187.256C75.1953 185.628 75.2767 184.652 75.4395 184.326C76.5788 182.21 79.1016 180.339 83.0078 178.711L84.4727 177.979H86.4258C94.0755 174.886 102.702 172.689 112.305 171.387C117.676 170.573 122.965 169.515 128.174 168.213H130.127C137.777 166.423 141.764 165.527 142.09 165.527C142.578 165.365 143.148 165.283 143.799 165.283H144.531C146.81 165.283 147.949 164.307 147.949 162.354C147.949 161.54 147.705 160.319 147.217 158.691L146.729 156.006C146.729 153.89 146.647 152.751 146.484 152.588C146.322 152.425 146.159 152.181 145.996 151.855C145.833 151.367 145.752 150.879 145.752 150.391L145.996 148.193C145.996 147.217 145.833 146.566 145.508 146.24C145.182 145.752 144.938 145.182 144.775 144.531V140.869C144.45 140.544 144.206 140.299 144.043 140.137C143.88 139.974 143.799 138.672 143.799 136.23L142.822 134.277V131.104L141.846 130.127V126.709L140.869 125.732V122.803C140.869 122.64 140.706 122.477 140.381 122.314C140.218 121.989 140.055 121.745 139.893 121.582V118.896C139.893 118.734 139.73 118.571 139.404 118.408C139.079 118.245 138.916 116.943 138.916 114.502C138.753 114.502 138.59 114.421 138.428 114.258C138.428 114.095 138.265 113.851 137.939 113.525V111.084L137.451 110.596C137.126 110.433 136.963 110.27 136.963 110.107V107.666L135.986 106.934V104.736C135.986 104.411 135.824 104.167 135.498 104.004C135.335 103.678 135.173 103.434 135.01 103.271C135.01 101.807 134.928 101.074 134.766 101.074C134.766 100.911 134.521 100.667 134.033 100.342C134.033 98.877 133.87 97.9818 133.545 97.6562C133.219 97.3307 133.057 96.5169 133.057 95.2148L132.08 94.2383V92.2852L131.104 91.3086V89.8438C130.941 89.0299 130.29 87.8092 129.15 86.1816V84.4727C128.988 83.9844 128.662 83.4147 128.174 82.7637C127.686 82.1126 127.36 81.4616 127.197 80.8105C125.244 75.2767 122.965 69.987 120.361 64.9414C120.199 64.7786 120.036 64.6973 119.873 64.6973C119.71 64.5345 119.548 64.3717 119.385 64.209C119.385 64.0462 119.303 63.8835 119.141 63.7207C116.699 58.8379 114.014 54.2806 111.084 50.0488C110.758 49.5605 110.433 49.0723 110.107 48.584C109.945 47.9329 109.619 47.3633 109.131 46.875C108.805 46.3867 108.073 46.1426 106.934 46.1426C106.445 46.6309 105.713 46.875 104.736 46.875H104.004C103.353 46.875 102.865 46.9564 102.539 47.1191C102.214 47.1191 101.969 47.2005 101.807 47.3633C101.807 47.526 101.644 47.7702 101.318 48.0957C99.0397 48.0957 97.819 48.1771 97.6562 48.3398C97.4935 48.5026 97.3307 48.6654 97.168 48.8281C97.0052 48.8281 96.9238 48.9095 96.9238 49.0723C94.3197 49.0723 92.9362 49.235 92.7734 49.5605C92.6107 49.7233 92.4479 49.8047 92.2852 49.8047H88.623C87.972 50.4557 87.5651 50.7812 87.4023 50.7812H83.7402C83.4147 50.944 83.0892 51.1882 82.7637 51.5137C82.4382 51.6764 82.0312 51.8392 81.543 52.002C79.2643 52.002 77.9622 52.1647 77.6367 52.4902C77.474 52.653 77.2298 52.8158 76.9043 52.9785H72.7539C72.5911 52.9785 72.4284 53.1413 72.2656 53.4668C71.9401 53.6296 71.696 53.7923 71.5332 53.9551C68.278 53.9551 66.569 54.1178 66.4062 54.4434C66.0807 54.6061 65.6738 54.7689 65.1855 54.9316C61.6048 54.9316 59.8145 55.013 59.8145 55.1758C59.6517 55.3385 59.5703 55.5013 59.5703 55.6641C59.4076 55.6641 56.722 55.6641 51.5137 55.6641L49.8047 56.6406H29.0527L28.0762 55.6641H23.1934L22.7051 55.1758C20.4264 55.013 19.2871 54.8503 19.2871 54.6875C19.1243 54.5247 18.9616 54.2806 18.7988 53.9551H16.6016C16.1133 53.6296 15.625 53.304 15.1367 52.9785C14.4857 52.4902 13.9974 52.2461 13.6719 52.2461C13.1836 52.0833 12.7767 51.9206 12.4512 51.7578C12.1257 51.5951 11.9629 51.4323 11.9629 51.2695C11.8001 51.1068 11.556 50.944 11.2305 50.7812H10.498C9.84701 50.4557 9.35872 50.0488 9.0332 49.5605C8.70768 48.9095 8.46354 48.5026 8.30078 48.3398C7.97526 48.0143 7.73112 47.7702 7.56836 47.6074C4.96419 45.4915 2.84831 42.806 1.2207 39.5508V37.3535L0.244141 33.4473L0 31.4941C0 31.0059 0.0813802 30.599 0.244141 30.2734C0.406901 29.9479 0.569661 29.7852 0.732422 29.7852C0.895182 29.6224 1.05794 29.4596 1.2207 29.2969V26.123C1.38346 25.6348 1.79036 25.1465 2.44141 24.6582C2.92969 24.0072 3.25521 23.4375 3.41797 22.9492L3.17383 22.2168L3.41797 21.7285H3.66211L4.15039 21.4844C4.15039 20.6706 4.23177 20.1009 4.39453 19.7754C5.37109 19.1243 5.94076 18.7174 6.10352 18.5547C6.10352 18.3919 6.10352 17.985 6.10352 17.334C6.5918 16.6829 7.32422 16.0319 8.30078 15.3809C9.11458 14.7298 9.76562 13.9974 10.2539 13.1836C12.5326 10.2539 17.9036 6.91732 26.3672 3.17383C27.6693 3.17383 28.4831 3.17383 28.8086 3.17383C29.1341 3.01107 30.2734 2.60417 32.2266 1.95312C34.1797 1.30208 35.7259 0.976562 36.8652 0.976562C37.8418 0.976562 38.737 0.895182 39.5508 0.732422V0H49.3164V0.732422H49.8047C50.4557 1.05794 51.1882 1.2207 52.002 1.2207H52.9785C54.2806 1.2207 56.6406 1.79036 60.0586 2.92969C63.9648 3.58073 66.4062 4.39453 67.3828 5.37109L71.0449 7.08008C72.0215 7.24284 72.998 7.56836 73.9746 8.05664C82.7637 13.265 90.7389 19.2871 97.9004 26.123L105.713 34.9121C106.527 36.0514 107.422 37.1094 108.398 38.0859L109.375 39.5508C109.701 40.8529 110.596 41.6667 112.061 41.9922C112.874 41.1784 114.339 40.7715 116.455 40.7715L119.385 40.2832C122.803 39.3066 126.383 38.4115 130.127 37.5977C134.033 36.6211 137.858 35.5632 141.602 34.4238L144.531 34.1797L150.879 32.2266C151.693 32.2266 152.507 32.1452 153.32 31.9824C154.297 31.6569 154.785 30.6803 154.785 29.0527C154.785 28.0762 154.704 27.181 154.541 26.3672C154.541 21.6471 154.867 17.8223 155.518 14.8926C156.169 11.8001 158.122 10.1725 161.377 10.0098C161.702 10.3353 162.028 10.498 162.354 10.498C163.656 11.1491 164.795 12.4512 165.771 14.4043C166.748 16.3574 167.236 18.2292 167.236 20.0195L168.457 23.9258L168.213 25.8789C168.213 26.5299 168.294 27.0996 168.457 27.5879C168.62 27.9134 168.783 28.0762 168.945 28.0762H169.678C170.654 27.4251 172.119 27.0996 174.072 27.0996C175.212 26.9368 176.27 26.6927 177.246 26.3672C180.339 25.5534 183.675 24.9023 187.256 24.4141C190.023 24.0885 192.708 23.6003 195.312 22.9492C196.289 22.7865 197.266 22.7051 198.242 22.7051C199.382 22.7051 200.439 22.6237 201.416 22.4609C209.229 20.5078 217.529 19.1243 226.318 18.3105C234.456 17.4967 242.188 16.276 249.512 14.6484H259.033L270.996 12.9395L281.494 12.6953C282.633 12.3698 283.854 12.207 285.156 12.207C286.621 12.207 288.005 12.1257 289.307 11.9629C291.911 11.4746 294.678 11.0677 297.607 10.7422C300.537 10.2539 303.385 9.68424 306.152 9.0332C309.408 9.0332 311.768 8.95182 313.232 8.78906C314.697 8.6263 316.243 8.54492 317.871 8.54492C319.499 8.38216 320.964 8.2194 322.266 8.05664H326.904C328.695 7.4056 330.811 7.08008 333.252 7.08008L338.135 6.83594C342.692 6.83594 344.971 8.13802 344.971 10.7422C344.971 11.0677 344.889 11.4746 344.727 11.9629C344.564 12.2884 344.32 12.6953 343.994 13.1836C343.343 14.3229 342.285 15.1367 340.82 15.625C333.496 16.4388 327.637 16.8457 323.242 16.8457C319.01 16.8457 314.941 17.1712 311.035 17.8223L300.049 18.0664C298.258 18.3919 296.224 18.5547 293.945 18.5547H292.236C289.307 18.5547 286.54 18.9616 283.936 19.7754H278.32C274.251 20.4264 270.02 20.9147 265.625 21.2402C261.23 21.403 256.999 21.8913 252.93 22.7051H248.779L244.629 23.6816H240.479C236.572 24.4954 232.422 25.1465 228.027 25.6348C223.633 25.9603 219.401 26.5299 215.332 27.3438L209.961 27.5879L206.543 28.5645H203.125C200.521 29.0527 197.754 29.541 194.824 30.0293C191.895 30.3548 189.128 30.8431 186.523 31.4941H183.105C178.874 32.4707 174.398 33.1217 169.678 33.4473C169.515 33.9355 169.434 34.5866 169.434 35.4004L169.189 38.0859C169.678 38.737 169.922 40.3646 169.922 42.9688C169.922 43.7826 169.84 44.3522 169.678 44.6777C169.515 45.0033 169.352 45.2474 169.189 45.4102C169.027 45.5729 168.783 45.7357 168.457 45.8984C168.294 45.8984 167.969 45.8984 167.48 45.8984C166.016 42.6432 164.876 39.1439 164.062 35.4004C163.574 35.2376 162.842 35.1562 161.865 35.1562C161.54 35.319 160.807 35.4004 159.668 35.4004L159.424 36.1328C158.936 37.1094 158.691 39.2253 158.691 42.4805V44.4336C158.691 45.5729 158.61 46.7936 158.447 48.0957C158.285 49.235 158.203 50.6185 158.203 52.2461L158.447 57.373C158.447 58.6751 158.285 59.9772 157.959 61.2793C157.633 62.5814 157.471 67.4642 157.471 75.9277C157.308 76.7415 157.227 77.7181 157.227 78.8574V85.4492C156.576 88.3789 156.25 91.4714 156.25 94.7266L156.494 98.6328V112.061C156.169 113.851 156.006 116.374 156.006 119.629L155.518 139.16C155.518 144.531 155.436 148.844 155.273 152.1V162.842L156.006 163.33C159.261 162.516 162.516 161.865 165.771 161.377C169.189 160.726 172.363 160.075 175.293 159.424H179.199C179.362 159.261 179.688 159.098 180.176 158.936C180.664 158.773 181.152 158.61 181.641 158.447H185.059L186.523 157.471H190.674L192.383 156.494C195.801 156.494 197.591 156.413 197.754 156.25C198.079 155.924 198.324 155.68 198.486 155.518H202.881L212.646 153.564H216.797C219.727 152.751 222.9 152.181 226.318 151.855C228.923 151.53 231.364 151.123 233.643 150.635C236.735 150.635 238.363 150.553 238.525 150.391C238.688 150.228 238.851 150.146 239.014 150.146C239.176 149.984 241.374 149.74 245.605 149.414C251.302 148.6 255.778 147.786 259.033 146.973L260.01 146.729C260.824 146.729 261.556 146.973 262.207 147.461C263.021 147.949 263.509 148.519 263.672 149.17C263.997 149.658 264.16 150.146 264.16 150.635C264.16 150.798 264.16 151.123 264.16 151.611C264.16 151.937 264.079 152.344 263.916 152.832C263.753 153.158 263.509 153.483 263.184 153.809C263.021 153.971 262.777 154.134 262.451 154.297C261.475 155.111 260.417 155.68 259.277 156.006C258.138 156.331 257.08 156.576 256.104 156.738C255.29 156.738 254.476 156.82 253.662 156.982C253.011 157.145 252.36 157.308 251.709 157.471H243.164L236.084 158.203L234.375 156.25L234.619 154.785V154.053C234.456 153.564 233.805 153.32 232.666 153.32L231.445 153.564C230.794 154.053 229.899 154.378 228.76 154.541C227.62 154.541 225.993 154.541 223.877 154.541C222.9 154.541 221.924 154.704 220.947 155.029C220.622 155.192 218.099 155.273 213.379 155.273C213.053 155.436 212.728 155.68 212.402 156.006C212.24 156.169 211.995 156.331 211.67 156.494C211.344 156.494 210.205 156.494 208.252 156.494L206.055 156.25C205.566 156.25 205.322 156.494 205.322 156.982C204.671 157.308 202.393 157.471 198.486 157.471L197.998 158.203C194.417 158.203 192.546 158.285 192.383 158.447C192.22 158.61 192.057 158.691 191.895 158.691C191.895 158.691 191.732 158.854 191.406 159.18C187.5 159.18 185.547 159.424 185.547 159.912C185.221 159.912 185.059 160.075 185.059 160.4C181.966 160.4 180.339 160.563 180.176 160.889C180.013 161.051 179.85 161.133 179.688 161.133H175.293C175.293 161.296 175.212 161.458 175.049 161.621C174.886 161.621 174.723 161.702 174.561 161.865C174.398 162.028 173.096 162.109 170.654 162.109C170.329 162.272 170.003 162.516 169.678 162.842C169.515 163.167 167.725 163.33 164.307 163.33L163.086 164.307H159.668H159.424C159.261 164.469 159.098 164.632 158.936 164.795C158.936 164.958 158.854 165.12 158.691 165.283H155.762C155.436 165.934 155.273 166.667 155.273 167.48V168.457C154.948 168.945 154.785 169.596 154.785 170.41C154.785 171.224 154.867 172.038 155.029 172.852C155.192 173.665 155.273 174.398 155.273 175.049L155.029 176.758C154.541 179.362 154.297 183.024 154.297 187.744C154.297 192.627 154.541 196.37 155.029 198.975C155.192 200.114 155.273 201.335 155.273 202.637V204.346L155.518 207.275C156.006 210.042 156.25 212.972 156.25 216.064V218.506C156.25 222.412 156.576 226.237 157.227 229.98L157.471 233.887V235.84C157.471 245.28 157.796 252.279 158.447 256.836C158.447 264.648 158.773 270.182 159.424 273.438L159.18 284.912C159.18 286.865 159.342 288.656 159.668 290.283C159.668 294.515 159.587 298.665 159.424 302.734L159.668 311.279C159.668 314.209 159.424 317.301 158.936 320.557C158.447 323.812 156.576 325.928 153.32 326.904ZM161.377 30.2734C161.377 30.1107 161.458 29.9479 161.621 29.7852C161.784 29.6224 161.865 29.2155 161.865 28.5645C161.702 28.2389 161.54 27.9134 161.377 27.5879C161.377 27.0996 161.296 26.7741 161.133 26.6113C161.133 26.4486 161.051 26.3672 160.889 26.3672L160.645 26.123L159.912 30.0293L161.377 30.2734ZM152.344 167.48V166.26L151.855 166.504L151.611 167.48H152.344ZM152.1 163.574C152.588 162.76 152.832 161.702 152.832 160.4V156.494C152.669 155.68 152.588 147.542 152.588 132.08C152.913 131.592 153.076 130.941 153.076 130.127V123.779C153.727 121.175 154.053 118.327 154.053 115.234C154.053 113.932 153.971 112.549 153.809 111.084C153.646 109.619 153.564 92.6107 153.564 60.0586C153.727 58.9193 153.809 57.6172 153.809 56.1523L153.564 50.7812C153.564 49.8047 153.646 48.7467 153.809 47.6074C154.134 46.3053 154.378 44.4336 154.541 41.9922C154.541 39.7135 154.46 37.9232 154.297 36.6211H152.832C152.181 36.9466 151.53 37.1094 150.879 37.1094H150.391C149.902 37.1094 149.495 37.1908 149.17 37.3535C148.844 37.3535 148.519 37.5163 148.193 37.8418C147.868 38.0046 147.624 38.0859 147.461 38.0859H144.043C143.717 38.2487 143.311 38.4928 142.822 38.8184C142.497 39.1439 141.113 39.3066 138.672 39.3066C138.346 39.6322 137.695 39.9577 136.719 40.2832H134.033C133.87 40.2832 133.626 40.3646 133.301 40.5273C133.138 40.6901 132.975 40.8529 132.812 41.0156C132.812 41.1784 132.731 41.2598 132.568 41.2598C130.452 41.2598 129.232 41.4225 128.906 41.748C128.743 41.9108 128.499 42.0736 128.174 42.2363H125.244C124.919 42.2363 124.593 42.3991 124.268 42.7246C124.105 42.8874 123.942 43.0501 123.779 43.2129C121.501 43.2129 120.199 43.3757 119.873 43.7012C119.71 43.8639 119.385 44.0267 118.896 44.1895C118.571 44.3522 117.92 44.4336 116.943 44.4336C114.827 44.4336 113.77 44.8405 113.77 45.6543C113.77 46.6309 114.502 47.8516 115.967 49.3164C117.757 51.5951 119.548 54.6061 121.338 58.3496C122.152 59.9772 123.047 61.6862 124.023 63.4766C125 65.1042 125.732 66.7318 126.221 68.3594C126.872 69.987 127.523 71.5332 128.174 72.998C131.917 80.8105 135.173 88.9486 137.939 97.4121L138.184 99.8535C140.137 105.55 141.764 111.491 143.066 117.676L145.752 127.441V131.104C146.403 132.894 146.891 134.847 147.217 136.963C147.542 138.916 147.868 140.625 148.193 142.09C148.519 143.555 148.682 145.02 148.682 146.484L150.635 155.029V158.447C150.635 159.912 150.96 161.621 151.611 163.574H152.1ZM38.8184 54.1992C42.8874 54.1992 46.3867 53.8737 49.3164 53.2227C51.9206 53.0599 54.6061 52.9785 57.373 52.9785L60.0586 52.002H63.9648L65.918 51.0254H69.5801C71.5332 50.5371 73.5677 50.1302 75.6836 49.8047C79.5898 49.1536 83.1706 48.3398 86.4258 47.3633C87.5651 47.2005 88.7858 47.1191 90.0879 47.1191C92.041 46.4681 94.1569 45.8984 96.4355 45.4102C99.3652 44.4336 101.318 43.9453 102.295 43.9453C104.411 43.9453 105.632 43.3757 105.957 42.2363C104.492 40.7715 103.516 39.5508 103.027 38.5742L102.783 38.0859V37.3535L101.807 37.1094C100.83 35.8073 99.9349 34.8307 99.1211 34.1797C98.3073 33.3659 97.7376 32.7962 97.4121 32.4707C97.0866 31.9824 96.1914 30.8431 94.7266 29.0527C93.4245 27.2624 91.9596 26.0417 90.332 25.3906C89.1927 24.5768 88.2161 23.6816 87.4023 22.7051C86.7513 21.5658 86.0189 20.5892 85.2051 19.7754C84.554 19.7754 83.9844 19.694 83.4961 19.5312C83.0078 19.2057 82.6009 18.7988 82.2754 18.3105C81.9499 17.6595 81.543 17.2526 81.0547 17.0898C80.7292 16.9271 80.4036 16.7643 80.0781 16.6016H79.5898C79.1016 15.9505 78.5319 15.3809 77.8809 14.8926C77.8809 14.7298 77.474 14.6484 76.6602 14.6484L75.9277 13.916H74.9512C74.4629 13.265 74.056 12.8581 73.7305 12.6953C73.4049 12.3698 73.2422 12.1257 73.2422 11.9629H72.0215L71.2891 10.9863H70.5566L69.5801 10.7422V10.0098C68.278 10.0098 67.627 9.92839 67.627 9.76562C67.4642 9.4401 67.3828 9.27734 67.3828 9.27734C67.3828 9.11458 67.3014 8.95182 67.1387 8.78906H64.9414L64.209 8.05664H63.2324C63.0697 7.73112 62.9069 7.56836 62.7441 7.56836C62.5814 7.4056 62.5 7.24284 62.5 7.08008H59.8145C59.1634 6.42904 58.7565 6.10352 58.5938 6.10352H56.3965C56.2337 5.94076 56.071 5.77799 55.9082 5.61523C55.7454 5.45247 55.6641 5.28971 55.6641 5.12695H52.002C50.8626 4.80143 49.8047 4.39453 48.8281 3.90625C48.3398 4.23177 47.4447 4.39453 46.1426 4.39453L42.2363 4.15039C37.679 4.15039 33.7728 4.72005 30.5176 5.85938L30.0293 6.10352C28.4017 6.10352 27.5065 6.26628 27.3438 6.5918C27.0182 6.5918 26.8555 6.75456 26.8555 7.08008C26.2044 7.24284 25.6348 7.4056 25.1465 7.56836C24.4954 7.56836 23.763 7.73112 22.9492 8.05664C18.3919 10.498 14.4043 13.5905 10.9863 17.334C10.0098 18.3105 9.0332 19.1243 8.05664 19.7754C8.05664 20.2637 7.97526 20.6706 7.8125 20.9961C7.64974 21.3216 7.48698 21.5658 7.32422 21.7285C7.16146 21.8913 6.9987 21.9727 6.83594 21.9727C6.1849 23.2747 5.61523 24.9023 5.12695 26.8555C4.80143 27.181 4.55729 27.4251 4.39453 27.5879C4.06901 27.7507 3.90625 29.3783 3.90625 32.4707L3.66211 34.9121C3.66211 37.679 4.63867 40.446 6.5918 43.2129C8.54492 45.8171 10.6608 47.7702 12.9395 49.0723L16.6016 50.5371L19.043 51.2695H20.2637C20.4264 51.4323 20.5892 51.5951 20.752 51.7578C20.9147 51.7578 21.0775 51.8392 21.2402 52.002C21.403 52.1647 22.2982 52.2461 23.9258 52.2461C28.1576 53.5482 33.1217 54.1992 38.8184 54.1992ZM277.344 235.596L275.635 232.91V229.736L274.658 227.783C274.658 223.714 274.495 220.459 274.17 218.018C273.844 215.576 273.682 211.589 273.682 206.055V183.35C273.682 177.327 273.519 172.363 273.193 168.457C273.193 167.318 273.438 166.504 273.926 166.016C274.414 165.365 274.902 164.876 275.391 164.551C275.879 164.062 276.286 163.656 276.611 163.33C278.402 163.33 279.785 163.411 280.762 163.574C281.087 163.9 281.494 164.307 281.982 164.795C282.633 165.283 283.122 165.934 283.447 166.748V173.096C283.122 173.421 282.878 173.828 282.715 174.316C282.715 174.642 282.715 175.049 282.715 175.537C282.715 176.025 282.552 176.676 282.227 177.49C282.064 178.141 281.82 178.792 281.494 179.443V182.617C279.704 189.941 278.809 200.765 278.809 215.088V221.191C279.622 221.191 280.029 220.622 280.029 219.482C280.192 218.18 280.436 217.448 280.762 217.285C281.087 216.96 281.331 216.715 281.494 216.553V213.867C281.494 213.542 281.657 213.298 281.982 213.135L282.471 212.891V210.693C282.633 210.531 282.796 210.368 282.959 210.205C283.285 209.88 283.529 209.554 283.691 209.229L283.447 208.252C283.61 207.601 283.773 207.275 283.936 207.275C284.098 207.113 284.261 206.95 284.424 206.787V204.59C289.632 192.871 296.956 183.35 306.396 176.025L306.885 175.537C311.442 171.956 315.267 170.166 318.359 170.166C320.312 170.329 322.021 170.736 323.486 171.387C324.951 172.038 325.684 173.258 325.684 175.049L325.439 177.979L324.219 178.711C323.079 179.525 321.696 180.176 320.068 180.664L308.35 180.908C307.861 181.722 307.21 182.21 306.396 182.373C305.745 182.373 305.094 182.536 304.443 182.861C300.7 184.977 297.201 188.721 293.945 194.092C293.783 194.255 293.538 194.499 293.213 194.824C292.887 194.987 292.562 195.312 292.236 195.801C292.236 196.289 292.155 196.696 291.992 197.021C291.016 197.673 290.365 198.649 290.039 199.951C289.876 201.253 289.225 202.718 288.086 204.346C287.435 205.485 287.109 206.624 287.109 207.764C287.109 207.926 286.947 208.089 286.621 208.252C286.458 208.252 286.296 208.333 286.133 208.496V210.205C286.133 210.531 285.97 210.775 285.645 210.938C285.482 211.1 285.319 211.263 285.156 211.426V213.379C285.156 213.542 284.993 213.704 284.668 213.867C284.505 214.03 284.424 214.925 284.424 216.553C283.773 218.18 283.285 219.238 282.959 219.727C282.796 220.215 282.633 220.703 282.471 221.191C282.471 221.517 282.389 222.575 282.227 224.365C282.227 224.854 282.227 225.342 282.227 225.83C282.227 226.318 281.982 226.644 281.494 226.807L281.25 228.027L281.494 229.98C281.494 230.143 281.413 230.387 281.25 230.713C281.25 231.038 280.924 231.527 280.273 232.178L280.029 234.375C279.704 234.538 279.297 234.782 278.809 235.107C278.483 235.433 277.995 235.596 277.344 235.596ZM341.309 233.887C339.681 233.887 337.809 233.073 335.693 231.445C335.042 230.957 334.554 230.632 334.229 230.469C334.066 230.469 333.903 230.387 333.74 230.225C333.74 230.225 333.74 229.736 333.74 228.76L332.52 228.027C332.52 226.4 332.52 225.505 332.52 225.342C332.357 225.342 332.031 225.098 331.543 224.609L330.811 212.891L331.787 210.693L331.543 207.52L332.275 203.125C333.415 197.917 335.124 193.197 337.402 188.965C339.844 184.733 343.506 181.722 348.389 179.932C349.202 179.606 350.016 179.443 350.83 179.443C354.085 179.443 356.934 180.664 359.375 183.105C363.118 187.174 364.99 189.535 364.99 190.186C365.479 190.674 365.967 191.406 366.455 192.383C367.106 193.197 367.432 194.417 367.432 196.045C366.455 198.812 364.339 200.195 361.084 200.195L360.107 199.463C358.805 198.975 357.503 197.51 356.201 195.068C355.55 193.766 354.736 192.708 353.76 191.895C352.783 190.918 351.156 190.43 348.877 190.43V190.674C347.249 191.325 345.54 193.278 343.75 196.533L342.529 198.73C338.786 204.264 336.589 209.31 335.938 213.867C335.612 215.495 335.286 216.96 334.961 218.262C334.798 219.564 334.717 220.703 334.717 221.68C334.717 222.005 334.717 222.493 334.717 223.145C334.88 223.633 335.124 224.121 335.449 224.609C335.449 227.051 335.775 228.841 336.426 229.98C337.24 231.283 339.518 231.934 343.262 231.934C343.424 231.771 343.506 231.608 343.506 231.445C343.669 231.445 343.994 231.364 344.482 231.201H345.215C345.378 231.201 345.459 231.12 345.459 230.957H345.703C345.866 230.957 346.029 230.876 346.191 230.713C346.354 230.713 346.436 230.632 346.436 230.469C346.436 230.469 346.68 230.225 347.168 229.736H348.145L348.877 228.516C349.365 228.516 349.854 228.271 350.342 227.783C350.83 227.295 351.237 226.969 351.562 226.807C352.865 226.318 353.678 225.667 354.004 224.854C354.492 224.202 354.899 223.714 355.225 223.389C356.364 223.389 357.422 222.656 358.398 221.191C358.887 220.378 359.456 219.727 360.107 219.238C363.037 216.309 365.641 212.972 367.92 209.229C370.199 206.95 371.419 205.648 371.582 205.322L371.338 204.346C371.663 203.857 372.152 203.451 372.803 203.125C373.454 202.637 373.942 202.148 374.268 201.66C374.593 200.521 375 199.707 375.488 199.219C376.139 198.568 376.628 197.835 376.953 197.021L376.709 193.604C377.035 192.627 377.279 191.406 377.441 189.941C378.255 186.523 378.906 184.245 379.395 183.105C380.046 182.454 380.534 181.885 380.859 181.396C381.185 180.908 381.51 180.664 381.836 180.664C382.324 180.664 382.812 180.583 383.301 180.42C387.044 180.42 389.079 182.21 389.404 185.791C389.404 187.419 389.323 188.314 389.16 188.477C388.997 188.639 388.672 188.965 388.184 189.453L388.428 192.139L387.451 194.092L387.695 196.533C387.695 196.859 387.533 197.184 387.207 197.51C387.044 197.835 386.963 198.161 386.963 198.486V202.637C386.8 203.125 386.637 203.695 386.475 204.346C386.312 204.997 386.23 207.113 386.23 210.693C386.23 212.972 386.556 215.007 387.207 216.797C388.021 218.424 389.404 219.238 391.357 219.238C391.846 218.75 392.822 218.262 394.287 217.773C395.752 217.122 397.135 216.064 398.438 214.6L403.809 209.473C408.04 204.264 411.784 198.812 415.039 193.115C415.365 192.464 415.771 191.976 416.26 191.65C416.911 191.162 417.399 190.755 417.725 190.43L417.48 188.965C417.643 188.802 417.887 188.639 418.213 188.477C418.538 188.314 418.783 188.151 418.945 187.988C419.271 187.826 419.434 187.663 419.434 187.5C419.759 186.198 420.329 185.14 421.143 184.326L422.119 183.105C422.119 182.454 422.852 181.071 424.316 178.955C425.781 176.676 426.921 175.212 427.734 174.561C428.711 173.747 429.688 173.096 430.664 172.607L431.396 172.119C432.048 171.468 433.024 171.143 434.326 171.143C434.977 171.143 435.384 171.224 435.547 171.387C436.361 171.712 436.93 172.038 437.256 172.363L438.721 174.561C440.023 177.165 440.755 180.583 440.918 184.814C441.243 193.441 441.569 198.161 441.895 198.975C442.546 198.161 443.359 196.777 444.336 194.824L447.998 188.965L449.707 187.5C453.288 182.454 457.845 178.141 463.379 174.561C465.82 173.096 468.343 172.363 470.947 172.363C473.877 172.363 475.993 173.014 477.295 174.316C481.038 179.036 482.992 185.71 483.154 194.336L483.398 199.707C483.073 201.986 482.91 204.508 482.91 207.275C482.91 212.484 483.48 216.39 484.619 218.994C485.921 219.482 487.061 219.727 488.037 219.727C489.99 219.564 491.781 218.913 493.408 217.773C495.036 216.634 498.454 213.623 503.662 208.74C506.917 205.648 508.708 203.857 509.033 203.369C509.359 202.718 510.417 201.742 512.207 200.439C513.997 198.975 515.299 197.673 516.113 196.533C518.88 192.301 521.24 189.779 523.193 188.965C523.193 189.453 523.112 189.86 522.949 190.186C522.949 190.348 522.786 190.511 522.461 190.674C522.298 190.837 522.135 191.081 521.973 191.406L516.846 197.51C513.916 201.09 510.986 204.427 508.057 207.52C505.29 210.612 501.79 213.704 497.559 216.797C496.745 217.285 495.85 218.018 494.873 218.994C493.896 219.808 492.513 220.703 490.723 221.68C490.234 221.842 489.665 221.924 489.014 221.924C488.525 222.412 487.874 222.656 487.061 222.656H486.816C486.816 222.493 486.735 222.412 486.572 222.412C486.41 222.249 486.328 222.087 486.328 221.924C482.91 221.924 480.876 218.831 480.225 212.646L480.469 209.473L481.201 208.74V205.566C481.038 205.241 480.957 204.59 480.957 203.613L481.201 202.148L480.957 198.486C481.12 198.324 481.201 198.242 481.201 198.242C481.364 198.079 481.527 197.998 481.689 197.998V197.754C481.689 195.801 481.283 193.197 480.469 189.941C479.98 187.663 479.736 185.547 479.736 183.594L478.76 182.861V180.664C476.644 177.572 474.365 176.025 471.924 176.025C471.598 176.351 471.11 176.595 470.459 176.758C469.971 176.758 469.32 177.083 468.506 177.734C467.855 178.223 466.96 178.955 465.82 179.932C464.844 180.908 464.03 181.885 463.379 182.861C456.217 192.79 450.195 203.776 445.312 215.82C444.824 216.96 444.417 218.18 444.092 219.482C443.441 222.087 442.546 224.447 441.406 226.562C440.267 228.841 438.314 230.062 435.547 230.225L434.57 229.736C432.78 228.76 431.559 227.051 430.908 224.609C430.908 223.307 431.152 221.68 431.641 219.727V213.867C432.129 212.077 432.617 209.31 433.105 205.566C433.105 202.637 433.431 199.788 434.082 197.021C434.896 194.255 435.303 190.511 435.303 185.791C435.303 181.071 434.977 177.572 434.326 175.293L433.594 175.049C433.105 175.212 432.699 175.374 432.373 175.537C432.048 175.7 431.885 175.863 431.885 176.025C431.071 176.025 430.013 177.246 428.711 179.688C427.409 180.99 426.595 181.966 426.27 182.617C425.944 183.105 424.967 184.896 423.34 187.988C422.852 188.314 422.445 188.558 422.119 188.721C421.956 188.721 421.794 188.802 421.631 188.965C421.468 189.128 421.387 189.779 421.387 190.918C421.224 191.243 420.898 191.65 420.41 192.139C419.922 192.627 419.515 193.197 419.189 193.848C419.027 194.499 418.864 194.987 418.701 195.312C416.097 200.033 412.435 205.729 407.715 212.402C404.297 219.238 399.577 224.447 393.555 228.027C392.415 228.516 391.113 228.76 389.648 228.76C388.021 228.76 386.556 228.516 385.254 228.027C382.65 226.725 380.29 224.609 378.174 221.68V219.727L376.953 218.018V215.088C376.302 213.786 375.814 211.914 375.488 209.473L376.221 202.637H375.244C374.268 204.59 373.21 206.217 372.07 207.52C369.954 209.635 367.92 212.077 365.967 214.844C363.037 218.262 360.758 220.622 359.131 221.924C358.643 222.412 358.236 222.982 357.91 223.633C357.096 224.772 356.201 225.505 355.225 225.83C354.411 226.318 353.76 226.807 353.271 227.295C351.807 228.76 350.667 229.736 349.854 230.225C348.063 230.713 346.598 231.445 345.459 232.422C344.32 233.398 342.936 233.887 341.309 233.887ZM598.145 227.783H591.553L590.82 226.807H588.867L588.135 225.83H586.914L585.938 224.609C583.008 221.68 580.892 217.936 579.59 213.379C579.59 211.1 579.508 208.903 579.346 206.787L579.59 201.66L579.346 198.975H578.613C577.148 200.928 575.277 202.637 572.998 204.102C571.696 204.915 569.661 206.624 566.895 209.229C560.71 214.762 556.315 218.099 553.711 219.238L548.584 222.412C544.189 225.505 539.551 227.051 534.668 227.051C530.436 227.051 526.774 225.993 523.682 223.877C523.193 223.551 522.786 223.063 522.461 222.412C522.298 221.598 521.891 220.947 521.24 220.459C520.752 219.971 520.345 219.482 520.02 218.994V217.529C520.02 217.367 519.857 217.122 519.531 216.797L519.043 216.553C518.229 213.786 517.822 209.961 517.822 205.078C517.822 203.451 517.822 202.067 517.822 200.928C517.985 199.788 518.066 199.137 518.066 198.975C518.229 198.649 518.392 198.486 518.555 198.486C518.88 198.324 519.043 197.591 519.043 196.289C519.043 194.987 519.124 194.255 519.287 194.092C519.45 193.929 519.613 193.766 519.775 193.604C519.938 193.441 520.02 192.546 520.02 190.918C520.182 190.755 520.345 190.674 520.508 190.674C520.671 190.511 520.752 190.43 520.752 190.43C520.915 190.267 520.996 189.453 520.996 187.988L521.973 187.256V185.547C522.298 184.896 522.786 184.163 523.438 183.35C524.089 182.536 524.414 181.803 524.414 181.152C524.577 180.339 524.821 179.688 525.146 179.199C529.867 172.201 533.773 168.457 536.865 167.969C537.354 167.806 537.76 167.562 538.086 167.236H538.818C544.84 167.236 549.316 168.457 552.246 170.898C555.176 173.34 557.78 176.351 560.059 179.932L560.303 180.176C562.907 183.105 564.209 185.628 564.209 187.744C564.209 188.395 564.046 188.965 563.721 189.453C563.232 190.755 562.337 191.732 561.035 192.383C560.384 192.708 559.652 192.871 558.838 192.871L555.908 192.627L554.443 190.918C553.141 189.779 552.246 188.395 551.758 186.768C551.432 184.977 549.642 182.617 546.387 179.688C543.783 177.409 541.016 176.107 538.086 175.781C534.017 175.781 530.518 178.548 527.588 184.082C527.425 184.408 527.1 184.733 526.611 185.059C526.286 185.221 526.042 185.547 525.879 186.035C525.879 186.523 525.798 186.93 525.635 187.256C525.472 187.581 525.065 188.151 524.414 188.965C523.926 189.616 523.682 190.674 523.682 192.139L523.438 192.383C523.275 192.546 523.112 192.708 522.949 192.871C522.786 192.871 522.705 193.522 522.705 194.824L521.729 196.045V197.998L520.752 199.219L520.508 205.811C520.182 206.624 520.02 207.601 520.02 208.74C520.02 211.344 520.589 214.111 521.729 217.041C523.031 219.808 524.414 221.761 525.879 222.9C527.995 224.202 530.436 224.854 533.203 224.854C537.435 224.854 541.423 223.877 545.166 221.924C556.559 215.251 565.755 206.462 572.754 195.557L574.463 193.115C577.718 188.883 579.508 186.035 579.834 184.57C579.671 184.57 579.346 184.489 578.857 184.326C578.532 184.001 578.125 183.675 577.637 183.35C577.148 182.861 576.823 182.21 576.66 181.396L578.369 179.443C579.997 177.002 582.357 175.7 585.449 175.537L587.158 175.293C587.484 174.642 587.891 174.072 588.379 173.584C589.03 173.096 589.518 172.526 589.844 171.875C590.495 170.573 591.309 169.515 592.285 168.701C593.262 167.725 594.889 167.236 597.168 167.236C597.493 167.562 597.9 167.969 598.389 168.457C599.04 168.783 599.691 169.352 600.342 170.166C600.993 170.817 601.318 171.712 601.318 172.852C601.318 173.991 600.993 174.886 600.342 175.537C599.854 176.188 599.528 177.002 599.365 177.979C606.527 182.373 611.898 188.802 615.479 197.266L615.723 199.951C616.211 201.579 616.455 203.288 616.455 205.078C616.455 208.659 615.641 212.077 614.014 215.332C612.386 218.424 610.433 220.622 608.154 221.924C607.503 222.412 606.689 223.226 605.713 224.365C604.736 225.342 603.516 225.83 602.051 225.83C601.888 225.83 601.644 225.993 601.318 226.318L601.074 226.807H599.365C599.04 226.807 598.796 226.888 598.633 227.051C598.47 227.376 598.307 227.62 598.145 227.783ZM594.482 225.342L597.412 224.854H599.854C606.852 221.924 611.491 216.878 613.77 209.717V200.684C613.77 200.358 613.607 200.033 613.281 199.707C612.956 199.382 612.63 198.73 612.305 197.754C612.142 196.777 611.898 195.882 611.572 195.068C607.992 189.046 602.295 186.035 594.482 186.035C590.739 192.057 587.728 198.812 585.449 206.299C585.449 208.415 585.368 209.717 585.205 210.205C585.042 210.531 584.88 210.856 584.717 211.182C584.717 211.507 584.635 211.914 584.473 212.402C584.473 213.542 584.717 214.681 585.205 215.82L585.449 216.797C586.914 222.493 589.925 225.342 594.482 225.342ZM634.521 154.053C634.359 153.89 634.115 153.727 633.789 153.564C633.626 153.402 633.301 153.239 632.812 153.076C632.487 152.751 632.161 152.344 631.836 151.855C631.673 151.367 631.429 151.042 631.104 150.879V149.17C631.104 145.426 632.406 142.822 635.01 141.357C635.335 141.195 635.661 141.113 635.986 141.113C636.475 140.951 636.963 140.706 637.451 140.381L640.381 140.625C640.869 140.951 641.439 141.357 642.09 141.846C642.904 142.334 643.473 143.066 643.799 144.043C644.124 145.02 644.368 145.833 644.531 146.484C644.531 148.763 643.473 150.635 641.357 152.1C639.242 153.402 636.963 154.053 634.521 154.053ZM678.467 274.17C675.049 274.17 673.014 273.193 672.363 271.24C672.201 270.752 671.794 270.264 671.143 269.775V267.822C671.143 267.497 670.898 267.171 670.41 266.846C670.41 266.52 670.492 266.195 670.654 265.869C670.98 265.706 671.143 264.567 671.143 262.451C671.305 261.963 671.631 261.556 672.119 261.23C672.607 260.905 672.933 260.579 673.096 260.254C673.096 259.277 673.421 258.545 674.072 258.057C674.886 257.731 675.293 257.08 675.293 256.104L676.514 254.883C677.49 254.069 678.223 253.092 678.711 251.953C679.199 250.814 679.688 250.163 680.176 250C680.664 249.837 680.908 249.674 680.908 249.512C686.605 241.699 692.708 234.456 699.219 227.783C704.915 222.249 708.008 219.401 708.496 219.238C709.147 219.076 709.717 218.587 710.205 217.773L705.566 215.576H704.102C703.776 215.413 703.532 215.251 703.369 215.088C703.369 214.762 702.881 214.6 701.904 214.6L701.66 214.355C701.66 214.193 701.579 214.03 701.416 213.867C701.253 213.704 700.358 213.542 698.73 213.379C694.987 211.426 692.464 210.368 691.162 210.205C690.023 210.042 688.721 209.229 687.256 207.764C684.814 205.648 683.105 204.508 682.129 204.346C681.478 205.485 680.094 206.868 677.979 208.496C676.514 209.473 675.456 210.368 674.805 211.182C674.154 211.995 673.258 212.809 672.119 213.623C671.143 214.274 670.085 215.088 668.945 216.064C663.411 220.296 659.912 222.412 658.447 222.412L656.982 223.389C655.843 224.202 654.785 224.854 653.809 225.342H651.855C651.693 225.342 651.53 225.423 651.367 225.586C651.367 225.911 651.123 226.074 650.635 226.074C650.309 226.237 649.74 226.4 648.926 226.562C647.949 226.562 646.81 226.481 645.508 226.318C644.206 226.156 643.066 225.993 642.09 225.83C641.113 225.667 640.462 225.505 640.137 225.342C639.811 225.179 639.323 224.772 638.672 224.121C638.021 223.307 637.37 222.493 636.719 221.68C636.068 220.866 635.661 220.296 635.498 219.971C635.335 219.645 635.254 219.401 635.254 219.238C635.254 219.076 635.173 218.913 635.01 218.75C631.755 212.24 630.127 204.753 630.127 196.289C630.127 192.871 630.452 189.535 631.104 186.279V181.152C631.429 179.688 631.755 178.141 632.08 176.514C632.406 174.886 632.65 173.503 632.812 172.363C632.975 171.061 633.138 169.84 633.301 168.701C634.115 167.236 635.091 166.097 636.23 165.283L637.939 163.818C641.032 163.818 642.985 164.714 643.799 166.504C644.613 168.132 645.02 170.247 645.02 172.852C645.02 178.548 644.613 183.594 643.799 187.988V191.895L642.822 194.336V197.021C642.497 197.998 642.008 198.73 641.357 199.219C640.869 199.707 640.462 200.277 640.137 200.928C639.486 201.904 639.16 203.939 639.16 207.031L639.404 213.379C639.893 220.215 642.904 223.633 648.438 223.633C651.53 223.633 654.053 222.9 656.006 221.436C656.494 221.11 656.982 220.866 657.471 220.703C657.959 220.378 658.366 220.215 658.691 220.215C659.18 220.052 659.587 219.889 659.912 219.727C660.238 219.401 660.482 219.076 660.645 218.75C661.296 218.587 661.865 218.424 662.354 218.262C662.842 217.936 663.33 217.611 663.818 217.285C665.771 215.495 667.236 214.6 668.213 214.6L669.678 212.646C674.072 209.391 678.141 205.973 681.885 202.393C681.234 200.439 680.827 198.568 680.664 196.777C680.664 194.987 680.99 193.034 681.641 190.918C684.245 183.919 687.907 178.223 692.627 173.828L693.604 172.852C694.906 171.549 696.289 170.41 697.754 169.434C699.219 168.457 701.172 167.969 703.613 167.969C704.427 168.62 705.078 169.108 705.566 169.434C706.217 169.759 706.624 170.085 706.787 170.41C707.113 170.736 707.275 171.468 707.275 172.607V174.805C705.973 175.944 704.997 177.246 704.346 178.711C703.695 180.176 702.962 181.234 702.148 181.885C701.335 182.536 700.765 183.105 700.439 183.594C700.439 184.57 699.87 185.465 698.73 186.279C697.754 187.093 697.103 187.988 696.777 188.965C696.452 189.941 695.475 190.999 693.848 192.139C692.383 193.115 691.325 194.255 690.674 195.557V199.463C690.837 199.788 690.999 200.195 691.162 200.684C691.325 201.172 691.65 201.579 692.139 201.904C695.557 204.508 699.3 206.624 703.369 208.252C705.811 209.229 707.764 210.286 709.229 211.426C710.693 212.565 712.402 213.379 714.355 213.867C717.285 210.775 720.459 208.008 723.877 205.566C724.365 204.915 724.772 204.427 725.098 204.102C725.586 203.776 726.156 203.532 726.807 203.369C727.458 203.206 728.353 202.474 729.492 201.172C730.632 199.87 731.934 198.73 733.398 197.754L734.619 196.533C736.735 194.417 738.688 193.278 740.479 193.115C740.641 193.441 740.723 193.848 740.723 194.336C740.072 194.824 739.502 195.394 739.014 196.045C738.525 196.533 737.874 196.94 737.061 197.266C736.41 197.428 735.677 197.998 734.863 198.975C734.212 199.951 733.398 200.684 732.422 201.172C731.445 201.497 730.55 202.23 729.736 203.369C728.923 204.508 727.783 205.485 726.318 206.299C724.854 207.113 723.633 208.252 722.656 209.717L721.191 210.693C718.099 212.321 716.39 213.949 716.064 215.576C716.715 215.902 717.122 216.309 717.285 216.797C717.611 217.122 717.936 217.367 718.262 217.529C722.168 220.947 724.121 225.342 724.121 230.713C724.121 236.41 721.924 241.781 717.529 246.826L716.064 248.779C709.554 257.568 701.172 264.73 690.918 270.264C686.035 272.868 681.885 274.17 678.467 274.17ZM677.979 271.484C679.118 271.484 680.176 271.159 681.152 270.508C681.966 270.345 682.617 270.264 683.105 270.264C683.594 270.264 683.919 270.101 684.082 269.775C684.408 269.45 684.733 269.206 685.059 269.043C685.384 269.043 685.872 268.962 686.523 268.799C687.174 268.636 687.907 268.148 688.721 267.334C689.535 266.683 690.43 266.357 691.406 266.357C692.057 265.706 692.627 265.218 693.115 264.893C693.604 264.567 694.01 264.404 694.336 264.404C695.475 263.753 696.37 263.021 697.021 262.207C697.673 261.556 698.242 261.068 698.73 260.742C703.939 256.999 708.415 252.523 712.158 247.314C712.321 247.152 712.565 246.908 712.891 246.582C713.379 246.419 713.786 246.094 714.111 245.605C714.111 245.117 714.274 244.629 714.6 244.141C715.088 243.815 715.495 243.408 715.82 242.92C716.146 242.432 716.39 241.862 716.553 241.211C716.715 240.723 716.878 240.234 717.041 239.746C717.204 239.421 717.367 239.176 717.529 239.014C717.855 239.014 718.018 238.932 718.018 238.77C718.994 236.003 719.482 233.398 719.482 230.957C719.482 227.214 718.018 224.121 715.088 221.68C714.6 221.354 714.111 220.947 713.623 220.459C713.135 219.808 712.321 219.401 711.182 219.238L710.449 219.482C709.31 220.785 708.008 222.087 706.543 223.389L705.566 224.121C703.125 226.888 701.335 228.678 700.195 229.492C697.917 232.422 695.801 234.701 693.848 236.328C693.359 236.654 692.952 237.061 692.627 237.549L689.697 241.211C688.07 243.001 686.523 244.954 685.059 247.07L682.617 249.268C682.454 249.43 682.373 249.674 682.373 250C682.373 250.326 681.641 251.465 680.176 253.418C678.711 255.371 677.327 257.487 676.025 259.766C674.723 262.207 674.072 264.974 674.072 268.066V270.02C674.235 270.182 674.479 270.426 674.805 270.752C675.293 271.24 676.351 271.484 677.979 271.484ZM762.695 230.469C759.277 230.143 755.778 229.98 752.197 229.98C749.105 228.841 746.094 227.295 743.164 225.342C740.885 223.714 739.095 221.273 737.793 218.018C736.328 214.762 735.596 211.263 735.596 207.52C735.596 204.753 736.084 201.986 737.061 199.219C742.269 187.174 751.628 179.281 765.137 175.537C768.229 174.561 771.322 174.072 774.414 174.072C778.32 174.072 781.901 175.049 785.156 177.002C787.598 179.443 788.818 182.21 788.818 185.303C788.818 188.883 787.598 192.139 785.156 195.068C780.924 199.788 775.472 202.962 768.799 204.59C762.126 206.055 754.313 206.787 745.361 206.787C745.036 207.601 744.873 208.659 744.873 209.961V212.402C745.199 213.053 745.443 213.786 745.605 214.6C745.605 216.064 746.582 217.936 748.535 220.215C751.79 224.121 756.104 226.074 761.475 226.074C764.404 226.074 767.334 225.586 770.264 224.609C778.727 221.842 786.621 217.285 793.945 210.938C796.549 208.822 799.316 206.787 802.246 204.834C803.385 204.02 804.362 202.962 805.176 201.66C807.129 199.219 808.757 197.998 810.059 197.998C810.547 197.673 810.954 197.184 811.279 196.533C811.605 195.882 812.093 195.394 812.744 195.068L813.965 194.58C814.128 194.58 814.209 194.661 814.209 194.824C814.372 194.824 814.453 194.906 814.453 195.068C814.453 195.557 813.883 196.37 812.744 197.51C811.768 198.486 810.872 199.463 810.059 200.439C809.408 201.253 808.594 202.067 807.617 202.881C805.176 204.834 802.979 206.868 801.025 208.984C799.072 210.938 797.526 212.24 796.387 212.891C795.41 213.379 794.515 213.949 793.701 214.6C787.679 220.133 780.599 224.691 772.461 228.271H770.508L769.531 229.248H767.578C767.253 229.248 766.846 229.411 766.357 229.736C765.869 230.225 764.648 230.469 762.695 230.469ZM763.672 194.824C764.323 194.499 765.055 194.336 765.869 194.336C766.683 194.336 767.415 194.173 768.066 193.848C775.553 191.243 779.541 188.232 780.029 184.814L779.785 183.35C777.995 182.373 775.879 181.885 773.438 181.885C772.949 182.048 771.24 182.21 768.311 182.373C763.59 184.326 759.44 186.686 755.859 189.453L754.883 190.186C753.581 190.999 752.767 191.895 752.441 192.871L753.906 193.115L757.08 192.871C758.545 192.871 759.603 193.197 760.254 193.848C760.905 194.499 762.044 194.824 763.672 194.824Z" fill="#CB0213"/>
</svg>
